<svg id="eqb2pfozlqn1" xmlns="http://www.w3.org/2000/svg" xmlns:xlink="http://www.w3.org/1999/xlink" viewBox="0 0 200 200" shape-rendering="geometricPrecision" text-rendering="geometricPrecision"><style><![CDATA[#eqb2pfozlqn3_to {animation: eqb2pfozlqn3_to__to 3000ms linear infinite normal forwards}@keyframes eqb2pfozlqn3_to__to { 0% {transform: translate(-96px,-0.100000px)} 10% {transform: translate(-0.100000px,-0.100000px)} 100% {transform: translate(-0.100000px,-0.100000px)} }#eqb2pfozlqn4_to {animation: eqb2pfozlqn4_to__to 3000ms linear infinite normal forwards}@keyframes eqb2pfozlqn4_to__to { 0% {transform: translate(93.500000px,-0.050000px)} 6.666667% {transform: translate(93.500000px,-0.050000px)} 16.666667% {transform: translate(0.500000px,-0.050000px)} 100% {transform: translate(0.500000px,-0.050000px)} }#eqb2pfozlqn5_to {animation: eqb2pfozlqn5_to__to 3000ms linear infinite normal forwards}@keyframes eqb2pfozlqn5_to__to { 0% {transform: translate(0px,48.800000px)} 16.666667% {transform: translate(0px,48.800000px)} 26.666667% {transform: translate(-0px,0px)} 100% {transform: translate(-0px,0px)} }]]></style><rect id="eqb2pfozlqn2" width="200" height="200" rx="0" ry="0" fill="rgb(0,0,0)" stroke="none" stroke-width="1"/><g id="eqb2pfozlqn3_to" transform="translate(-96,-0.100000)"><path id="eqb2pfozlqn3" d="M22.100000,141.100000L22.100000,136.400000L33,136L33,49L22.100000,48.600000L22.100000,43.900000L33,43.900000L59.900000,43.900000C70,43.900000,77.900000,46,83.400000,50.200000C89,54.400000,91.800000,60.700000,91.800000,69.100000C91.800000,74.500000,90.300000,79.200000,87.400000,83C84.500000,86.800000,80.400000,89.300000,75.200000,90.500000C79.200000,91.100000,82.800000,92.500000,85.900000,94.800000C89,97.100000,91.500000,99.900000,93.300000,103.300000C95.100000,106.700000,96,110.300000,96,114.300000C96,122.900000,93.200000,129.500000,87.600000,134.200000C82,138.900000,74.600000,141.200000,65.400000,141.200000L22.100000,141.200000ZM38.800000,88.400000L61.600000,88.400000C69.500000,88.400000,75.600000,86.800000,79.700000,83.500000C83.800000,80.200000,85.900000,75.300000,85.900000,68.800000C85.900000,62.300000,83.700000,57.300000,79.300000,54C74.900000,50.700000,68.400000,49,59.800000,49L38.800000,49L38.800000,88.400000ZM38.800000,135.900000L65.500000,135.900000C73.200000,135.900000,79.300000,134,83.600000,130.200000C88,126.400000,90.200000,121.100000,90.200000,114.300000C90.200000,110.300000,89.300000,106.800000,87.500000,103.700000C85.700000,100.600000,83,98.100000,79.500000,96.300000C76,94.500000,71.700000,93.600000,66.600000,93.600000L38.800000,93.600000L38.800000,135.900000Z" transform="translate(0,0)" fill="rgb(255,255,255)" stroke="none" stroke-width="1"/></g><g id="eqb2pfozlqn4_to" transform="translate(93.500000,-0.050000)"><path id="eqb2pfozlqn4" d="M106.500000,141.100000L106.500000,136.400000L117.400000,136L117.400000,49L106.500000,48.600000L106.500000,43.900000L175.500000,43.900000L175.500000,64.300000L170.300000,64.300000L170,49L123.200000,49L123.200000,87.900000L163.900000,87.900000L163.900000,93L123.200000,93L123.200000,136L172,136L172.300000,120.600000L177.500000,120.600000L177.500000,141L106.500000,141Z" transform="translate(0,0)" fill="rgb(255,255,255)" stroke="none" stroke-width="1"/></g><g id="eqb2pfozlqn5_to" transform="translate(0,48.800000)"><rect id="eqb2pfozlqn5" width="156" height="5" rx="0" ry="0" transform="translate(22,151.200000)" fill="rgb(255,255,255)" stroke="none" stroke-width="1"/></g></svg>