<?xml version="1.0" encoding="utf-8"?>
<svg version="1.1" id="Layer_1" xmlns="http://www.w3.org/2000/svg" xmlns:xlink="http://www.w3.org/1999/xlink" x="0px" y="0px"
	 viewBox="0 0 19 19" style="enable-background:new 0 0 19 19;" xml:space="preserve">
<style type="text/css">
	.st0{fill:#191E23;}
</style>
<polygon class="st0" points="4.3,14.3 4.3,13.3 2.3,14.8 4.3,16.3 4.3,15.3 14.3,15.3 14.3,16.3 16.3,14.8 14.3,13.3 14.3,14.3
	"/>
	<path class="st0" d="M5.1,10.8L2.4,2.7h1.1l1.3,4c0.3,1.1,0.6,2.1,0.9,3h0c0.2-0.9,0.6-2,0.9-3l1.4-4h1.1l-2.9,8.1H5.1z"/>
	<path class="st0" d="M11.9,8.2l-0.8,2.5H10l2.7-8.1H14l2.8,8.1h-1.1l-0.9-2.5H11.9z M14.5,7.4l-0.8-2.3c-0.2-0.5-0.3-1-0.4-1.5h0
		c-0.1,0.5-0.3,1-0.4,1.5l-0.8,2.3H14.5z"/>
</svg>
