<?xml version="1.0" encoding="utf-8"?>
<svg version="1.1" id="Layer_1" xmlns="http://www.w3.org/2000/svg" xmlns:xlink="http://www.w3.org/1999/xlink" x="0" y="0"
	 viewBox="0 0 19 19" style="enable-background:new 0 0 19 19;" xml:space="preserve">
	<path fill="#191E23" d="M10.5,7L10,8.8H9.3l1.8-5.5h0.8l1.8,5.5H13L12.4,7H10.5z M12.3,6.5l-0.5-1.6c-0.1-0.4-0.2-0.7-0.3-1h0
		c-0.1,0.3-0.2,0.7-0.3,1l-0.5,1.6H12.3z"/><path fill="#191E23" d="M10.5,14L10,15.8H9.3l1.8-5.5h0.8l1.8,5.5H13L12.4,14H10.5z M12.3,13.5l-0.5-1.6c-0.1-0.4-0.2-0.7-0.3-1h0
		c-0.1,0.3-0.2,0.7-0.3,1l-0.5,1.6H12.3z"/>
<polygon fill="#191E23" points="16,9.3 7,9.3 7,9.8 16,9.8 "/>
	<polygon fill="#191E23" points="5.6,11 6.6,11 5.1,9 3.6,11 4.6,11 4.6,14 3.6,14 5.1,16 6.6,14 5.6,14 	"/>
</svg>
