<?xml version="1.0" encoding="utf-8"?>
<svg version="1.1" id="Layer_1" xmlns="http://www.w3.org/2000/svg" xmlns:xlink="http://www.w3.org/1999/xlink" x="0px" y="0px"
	 viewBox="0 0 19 19" style="enable-background:new 0 0 19 19;" xml:space="preserve">
<style type="text/css">
	.st0{opacity:0.1;fill:#007CBA;enable-background:new    ;}
	.st1{fill:#FFFFFF;}
	.st2{opacity:0.5;fill:#007CBA;enable-background:new    ;}
	.st3{fill:#191E23;}
</style>
<rect class="st0" width="19" height="19"/>
<rect x="3" y="3" class="st1" width="13" height="13"/>
<rect class="st2" width="19" height="3"/>
<polygon class="st3" points="4,3 3,3 3,4 4,4 4,3 "/>
<polygon class="st3" points="6,3 5,3 5,4 6,4 6,3 "/>
<polygon class="st3" points="8,3 7,3 7,4 8,4 8,3 "/>
<polygon class="st3" points="10,3 9,3 9,4 10,4 10,3 "/>
<polygon class="st3" points="12,3 11,3 11,4 12,4 12,3 "/>
<polygon class="st3" points="14,3 13,3 13,4 14,4 14,3 "/>
<polygon class="st3" points="6,15 5,15 5,16 6,16 6,15 "/>
<polygon class="st3" points="8,15 7,15 7,16 8,16 8,15 "/>
<polygon class="st3" points="10,15 9,15 9,16 10,16 10,15 "/>
<polygon class="st3" points="12,15 11,15 11,16 12,16 12,15 "/>
<polygon class="st3" points="14,15 13,15 13,16 14,16 14,15 "/>
<polygon class="st3" points="16,3 15,3 15,4 16,4 16,3 "/>
<polygon class="st3" points="4,5 3,5 3,6 4,6 4,5 "/>
<polygon class="st3" points="4,7 3,7 3,8 4,8 4,7 "/>
<polygon class="st3" points="4,9 3,9 3,10 4,10 4,9 "/>
<polygon class="st3" points="4,11 3,11 3,12 4,12 4,11 "/>
<polygon class="st3" points="4,13 3,13 3,14 4,14 4,13 "/>
<polygon class="st3" points="4,15 3,15 3,16 4,16 4,15 "/>
<polygon class="st3" points="16,5 15,5 15,6 16,6 16,5 "/>
<polygon class="st3" points="16,7 15,7 15,8 16,8 16,7 "/>
<polygon class="st3" points="16,9 15,9 15,10 16,10 16,9 "/>
<polygon class="st3" points="16,11 15,11 15,12 16,12 16,11 "/>
<polygon class="st3" points="16,13 15,13 15,14 16,14 16,13 "/>
<polygon class="st3" points="16,15 15,15 15,16 16,16 16,15 "/>
</svg>
